{
	"asset":{
		"version":"2.0",
		"generator":"Created using the official Cinema 4D glTF Exporter 1.000x284978"
	},
	"scenes":[{
		"nodes":[0,
		1,
		2]
	}],
	"nodes":[{
		"name":"Cylinder",
		"translation":[0.0,
		163.31411743164063,
		-302.1821594238281],
		"scale":[1.0,
		1.0,
		1.0],
		"rotation":[0.0,
		0.0,
		0.0,
		-1.0],
		"mesh":0
	},
	{
		"name":"Cube",
		"translation":[0.0,
		204.24591064453126,
		0.0],
		"scale":[1.0,
		1.0,
		1.0],
		"rotation":[0.0,
		0.0,
		0.0,
		-1.0],
		"mesh":1
	},
	{
		"name":"Plane",
		"translation":[184.0421142578125,
		65.43265533447266,
		-0.4551757872104645],
		"scale":[1.0,
		1.0,
		1.0],
		"rotation":[0.07597087323665619,
		-0.04701787605881691,
		0.0033039695117622616,
		-0.9959954023361206],
		"mesh":2
	}],
	"meshes":[{
		"name":"Cylinder",
		"primitives":[{
			"attributes":{
				"POSITION":1,
				"NORMAL":2,
				"TEXCOORD_0":3
			},
			"indices":0,
			"material":0
		}]
	},
	{
		"name":"Cube",
		"primitives":[{
			"attributes":{
				"POSITION":5,
				"NORMAL":6,
				"TEXCOORD_0":7
			},
			"indices":4,
			"material":0
		}]
	},
	{
		"name":"Plane",
		"primitives":[{
			"attributes":{
				"POSITION":9,
				"NORMAL":10,
				"TEXCOORD_0":11
			},
			"indices":8,
			"material":0
		}]
	}],
	"accessors":[{
		"max":[4155],
		"bufferView":0,
		"type":"SCALAR",
		"componentType":5123,
		"min":[0],
		"count":23520,
		"byteOffset":0
	},
	{
		"max":[101.0,
		163.2816619873047,
		100.94810485839844],
		"bufferView":1,
		"type":"VEC3",
		"componentType":5126,
		"min":[-101.0,
		-163.2816619873047,
		-100.94810485839844],
		"count":4156,
		"byteOffset":0
	},
	{
		"max":[1.0,
		1.0,
		0.9994862675666809],
		"bufferView":1,
		"type":"VEC3",
		"componentType":5126,
		"min":[-1.0,
		-1.0,
		-0.9994862675666809],
		"count":4156,
		"byteOffset":12
	},
	{
		"max":[1.0,
		1.0],
		"bufferView":1,
		"type":"VEC2",
		"componentType":5126,
		"min":[0.0,
		0.0],
		"count":4156,
		"byteOffset":24
	},
	{
		"max":[453],
		"bufferView":2,
		"type":"SCALAR",
		"componentType":5123,
		"min":[0],
		"count":2052,
		"byteOffset":0
	},
	{
		"max":[100.0,
		204.24562072753907,
		100.0],
		"bufferView":3,
		"type":"VEC3",
		"componentType":5126,
		"min":[-100.0,
		-204.24562072753907,
		-100.0],
		"count":454,
		"byteOffset":0
	},
	{
		"max":[0.9957433342933655,
		0.9958822727203369,
		0.9957433342933655],
		"bufferView":3,
		"type":"VEC3",
		"componentType":5126,
		"min":[-0.9957433342933655,
		-0.9958822727203369,
		-0.9957433342933655],
		"count":454,
		"byteOffset":12
	},
	{
		"max":[1.0,
		1.0],
		"bufferView":3,
		"type":"VEC2",
		"componentType":5126,
		"min":[0.0,
		0.0],
		"count":454,
		"byteOffset":24
	},
	{
		"max":[120],
		"bufferView":4,
		"type":"SCALAR",
		"componentType":5123,
		"min":[0],
		"count":600,
		"byteOffset":0
	},
	{
		"max":[302.89495849609377,
		0.0,
		1240.13916015625],
		"bufferView":5,
		"type":"VEC3",
		"componentType":5126,
		"min":[-302.89495849609377,
		0.0,
		-1240.13916015625],
		"count":121,
		"byteOffset":0
	},
	{
		"max":[0.0,
		1.0,
		0.0],
		"bufferView":5,
		"type":"VEC3",
		"componentType":5126,
		"min":[0.0,
		1.0,
		0.0],
		"count":121,
		"byteOffset":12
	},
	{
		"max":[1.0,
		1.0],
		"bufferView":5,
		"type":"VEC2",
		"componentType":5126,
		"min":[0.0,
		0.0],
		"count":121,
		"byteOffset":24
	}],
	"bufferViews":[{
		"buffer":0,
		"byteOffset":0,
		"byteLength":47040,
		"target":34963
	},
	{
		"buffer":0,
		"byteOffset":47040,
		"byteLength":132992,
		"target":34962,
		"byteStride":32
	},
	{
		"buffer":1,
		"byteOffset":0,
		"byteLength":4104,
		"target":34963
	},
	{
		"buffer":1,
		"byteOffset":4104,
		"byteLength":14528,
		"target":34962,
		"byteStride":32
	},
	{
		"buffer":2,
		"byteOffset":0,
		"byteLength":1200,
		"target":34963
	},
	{
		"buffer":2,
		"byteOffset":1200,
		"byteLength":3872,
		"target":34962,
		"byteStride":32
	}],
	"buffers":[{
		"uri":"data:application/octet-stream;base64,",
		"byteLength":180032
	},
	{
		"uri":"data:application/octet-stream;base64,",
		"byteLength":18632
	},
	{
		"uri":"data:application/octet-stream;base64,",
		"byteLength":5072
	}],
	"materials":[{
		"pbrMetallicRoughness":{
			"baseColorFactor":[0.8170000000000001,
			0.8284666666666667,
			0.86,
			1.0],
			"metallicFactor":0.0,
			"roughnessFactor":0.5
		},
		"emissiveFactor":[0.0,
		0.0,
		0.0],
		"name":"Mat",
		"alphaMode":"OPAQUE",
		"doubleSided":false
	}]
}