<?xml version="1.0" standalone="no"?>
<!DOCTYPE svg PUBLIC "-//W3C//DTD SVG 20010904//EN"
 "http://www.w3.org/TR/2001/REC-SVG-20010904/DTD/svg10.dtd">
<svg version="1.0" xmlns="http://www.w3.org/2000/svg"
 width="500.000000pt" height="500.000000pt" viewBox="0 0 500.000000 500.000000"
 preserveAspectRatio="xMidYMid meet">
<metadata>
Created by potrace 1.14, written by Peter Selinger 2001-2017
</metadata>
<g transform="translate(0.000000,500.000000) scale(0.100000,-0.100000)"
fill="#000000" stroke="none">
<path d="M2477 4183 c-4 -3 -7 -31 -7 -61 0 -46 -4 -57 -25 -74 -29 -23 -55
-68 -55 -97 0 -14 -8 -21 -27 -23 -22 -2 -29 -9 -31 -30 -3 -22 2 -30 20 -36
28 -10 264 -8 296 2 33 11 27 58 -8 66 -18 4 -26 15 -31 39 -4 18 -23 50 -43
70 -33 34 -36 42 -36 94 0 53 -2 57 -23 57 -13 0 -27 -3 -30 -7z"/>
<path d="M2447 3816 c-64 -17 -117 -62 -147 -124 -19 -38 -31 -51 -48 -51 -14
-1 -27 -11 -34 -27 -23 -50 -3 -54 280 -54 155 0 261 4 273 10 34 19 18 70
-23 70 -11 0 -23 11 -29 27 -18 47 -81 115 -123 133 -61 27 -96 30 -149 16z"/>
<path d="M2355 3520 c-3 -5 -9 -41 -12 -80 -8 -91 4 -96 93 -42 l66 40 69 -40
c87 -50 97 -45 91 44 -2 35 -9 69 -14 76 -13 15 -283 17 -293 2z"/>
<path d="M2433 3347 c-29 -17 -125 -76 -215 -131 -204 -123 -457 -279 -523
-321 l-51 -32 -27 23 c-29 25 -94 47 -110 37 -16 -10 -2 -61 78 -288 42 -121
110 -314 150 -430 40 -115 103 -295 139 -400 37 -104 92 -264 122 -355 31 -91
64 -172 73 -180 15 -13 75 -15 439 -12 l422 2 11 23 c7 12 52 137 100 277 48
140 118 341 154 445 36 105 88 255 116 335 61 180 134 390 142 410 70 177 62
200 -51 144 -60 -30 -32 -42 -282 114 -174 109 -226 141 -493 305 -60 37 -116
67 -125 67 -9 0 -40 -15 -69 -33z m268 -228 c191 -116 371 -223 449 -266 25
-14 48 -28 52 -32 4 -4 -138 -6 -315 -6 l-322 1 -5 173 -5 172 -27 17 c-26 16
-30 16 -55 0 l-28 -17 -5 -173 -5 -173 -318 0 c-174 0 -317 1 -317 2 0 1 26
16 58 34 73 41 338 198 507 300 72 43 135 79 141 79 7 0 95 -50 195 -111z
m599 -433 c0 -2 -15 -44 -34 -93 -18 -48 -47 -131 -64 -183 -30 -92 -89 -261
-153 -442 l-31 -88 -69 0 c-69 0 -69 0 -69 28 0 28 19 184 46 372 22 149 43
354 37 363 -2 4 -26 7 -53 7 -38 0 -50 -4 -54 -17 -10 -37 -56 -374 -56 -414
0 -18 -5 -58 -10 -88 -6 -31 -17 -99 -23 -151 l-13 -95 -247 -3 c-155 -1 -247
1 -247 7 0 6 -9 72 -19 148 -11 76 -25 181 -31 233 -6 52 -16 127 -21 165 -6
39 -13 98 -16 133 -6 69 -12 75 -76 85 -33 5 -39 3 -46 -16 -5 -12 -5 -47 0
-77 5 -30 14 -93 19 -140 6 -47 15 -114 20 -150 5 -36 16 -121 24 -190 9 -69
18 -142 22 -162 l7 -38 -75 0 c-49 0 -79 4 -85 13 -6 6 -40 100 -76 207 -37
107 -96 280 -132 384 -36 104 -65 193 -65 198 0 4 358 8 795 8 437 0 795 -2
795 -4z m-320 -918 c0 -21 -134 -393 -145 -400 -31 -23 -31 -2 2 236 18 133
17 136 -50 136 -48 0 -49 -3 -76 -205 -12 -87 -24 -162 -27 -165 -8 -8 -263
-12 -311 -5 -54 8 -48 -13 -83 284 -5 40 -13 78 -18 83 -5 5 -31 8 -58 6 -58
-4 -56 5 -32 -163 9 -60 16 -117 16 -125 -1 -8 2 -29 6 -46 7 -33 -9 -49 -37
-38 -7 2 -41 91 -76 197 -35 105 -66 198 -68 205 -4 9 95 12 476 12 358 0 481
-3 481 -12z"/>
<path d="M2157 1203 c-12 -11 -8 -121 5 -129 13 -8 643 -7 670 2 16 5 19 14
16 67 l-3 62 -341 3 c-187 1 -343 -1 -347 -5z"/>
<path d="M2424 1017 c-3 -8 -4 -54 -2 -103 l3 -89 76 -3 c89 -3 89 -3 89 106
0 94 -7 102 -91 102 -49 0 -71 -4 -75 -13z"/>
</g>
</svg>
